<?xml version="1.0" standalone="no"?>
<!DOCTYPE svg PUBLIC "-//W3C//DTD SVG 20010904//EN"
 "http://www.w3.org/TR/2001/REC-SVG-20010904/DTD/svg10.dtd">
<svg version="1.0" xmlns="http://www.w3.org/2000/svg"
 width="1024.000000pt" height="1024.000000pt" viewBox="0 0 1024.000000 1024.000000"
 preserveAspectRatio="xMidYMid meet">

<g transform="translate(0.000000,1024.000000) scale(0.100000,-0.100000)"
fill="#003932" stroke="none">
<path d="M6270 7155 c-262 -52 -477 -187 -637 -399 -41 -55 -80 -110 -86 -123
-5 -13 -14 -23 -19 -23 -5 0 -31 18 -59 40 -64 50 -143 96 -237 138 -319 141
-751 96 -1057 -111 -86 -58 -222 -199 -284 -293 l-53 -80 -132 -12 c-250 -23
-447 -103 -638 -259 -314 -257 -464 -694 -383 -1118 25 -132 84 -267 175 -400
44 -64 48 -76 54 -148 23 -269 219 -597 451 -757 63 -43 216 -115 290 -135 82
-23 314 -31 413 -15 91 15 186 43 257 76 l51 25 66 -31 c99 -44 196 -68 334
-81 200 -19 385 8 554 80 l85 36 85 -37 c106 -46 188 -65 324 -77 340 -30 629
74 846 305 147 156 244 349 290 573 18 89 20 138 20 460 l0 361 43 0 c23 0 83
-7 132 -14 164 -26 316 -37 378 -27 171 29 308 146 350 298 19 73 31 192 22
232 -4 20 -97 136 -264 332 l-259 302 1 121 c0 106 -3 131 -27 201 -50 148
-157 293 -284 387 -111 83 -273 151 -416 177 -80 15 -305 12 -386 -4z m364
-411 c96 -25 187 -78 265 -156 l71 -70 -34 -47 c-117 -159 -342 -185 -500 -59
l-39 32 -46 -50 c-90 -99 -140 -234 -148 -404 -5 -88 -2 -121 17 -195 12 -50
23 -91 25 -93 1 -1 32 13 69 31 55 29 66 31 66 17 0 -25 44 -149 73 -205 14
-27 46 -76 71 -108 l44 -59 7 -155 c4 -85 5 -299 2 -476 -5 -340 -10 -379 -59
-486 -61 -133 -192 -280 -299 -334 -74 -37 -199 -67 -278 -67 -75 0 -192 17
-205 30 -4 4 10 32 31 62 22 29 53 74 71 99 l31 46 -72 38 c-76 40 -216 144
-256 190 l-24 28 -21 -50 c-66 -155 -196 -309 -313 -371 -80 -42 -198 -72
-287 -72 -68 0 -195 16 -205 26 -3 2 6 19 20 37 13 17 45 63 70 101 l47 70
-85 48 c-99 55 -137 83 -211 152 -29 27 -54 47 -56 45 -2 -2 -24 -44 -49 -94
-80 -155 -192 -277 -304 -330 -267 -127 -581 -10 -730 272 -57 107 -75 190
-72 328 l3 110 -70 70 c-156 157 -215 371 -169 611 51 269 293 511 569 571 93
20 259 20 370 -1 48 -10 89 -16 90 -14 1 2 7 30 14 62 25 124 119 280 221 365
116 96 223 142 380 162 224 29 428 -46 587 -214 l74 -79 0 -144 0 -144 205 0
205 0 -6 63 c-3 34 -8 68 -10 75 -9 30 18 205 42 272 77 213 247 385 444 448
84 27 97 29 209 31 57 0 117 -5 155 -15z m555 -739 c37 -42 40 -81 10 -119
-43 -55 -116 -54 -159 1 -49 62 -2 153 78 153 33 0 45 -6 71 -35z"/>
<path d="M4470 2944 c-340 -13 -685 -54 -794 -95 -98 -36 -96 -91 3 -123 197
-65 562 -88 1391 -88 832 0 1252 26 1439 89 117 39 105 97 -29 137 -72 22
-324 53 -530 66 -159 11 -1286 21 -1480 14z"/>
</g>
</svg>
