<svg xmlns="http://www.w3.org/2000/svg" width="32" height="32" viewBox="0 0 32 32" fill="none">
  <rect width="32" height="32" rx="6" fill="#0e7490"/>
  <path fill="#ecfeff" d="M16 7c-.55 0-1 .45-1 1v1.06A6.002 6.002 0 0 0 11.06 13H10c-.55 0-1 .45-1 1s.45 1 1 1h1.06A6.002 6.002 0 0 0 15 20.94V22c0 .55.45 1 1 1s1-.45 1-1v-1.06a6.002 6.002 0 0 0 3.94-4.94H22c.55 0 1-.45 1-1s-.45-1-1-1h-1.06A6.002 6.002 0 0 0 17 9.06V8c0-.55-.45-1-1-1zm0 5a4 4 0 1 1 0 8 4 4 0 0 1 0-8z"/>
  <circle cx="24" cy="9" r="2" fill="#22d3ee" opacity=".9"/>
  <circle cx="8" cy="23" r="1.5" fill="#22d3ee" opacity=".7"/>
</svg>
